<?xml version="1.0" encoding="utf-8"?>
<!-- Generator: Adobe Illustrator 19.2.1, SVG Export Plug-In . SVG Version: 6.00 Build 0)  -->
<svg version="1.1" xmlns="http://www.w3.org/2000/svg" xmlns:xlink="http://www.w3.org/1999/xlink" x="0px"
	 y="0px" viewBox="0 0 24 24" style="enable-background:new 0 0 24 24; width: 100px;" xml:space="preserve">
<style type="text/css">
	.st0{fill:#FF3366;}
</style>
<g>
	<g>
		<path class="st0" d="M9,1c0.6,0,1,0.4,1,1v11c0,0.6-0.4,1-1,1H2c-0.6,0-1-0.4-1-1V2c0-0.6,0.4-1,1-1H9 M9,0H2C0.9,0,0,0.9,0,2v11
			c0,1.1,0.9,2,2,2h7c1.1,0,2-0.9,2-2V2C11,0.9,10.1,0,9,0L9,0z"/>
	</g>
</g>
<g>
	<g>
		<path class="st0" d="M22,1c0.6,0,1,0.4,1,1v3c0,0.6-0.4,1-1,1h-7c-0.6,0-1-0.4-1-1V2c0-0.6,0.4-1,1-1H22 M22,0h-7
			c-1.1,0-2,0.9-2,2v3c0,1.1,0.9,2,2,2h7c1.1,0,2-0.9,2-2V2C24,0.9,23.1,0,22,0L22,0z"/>
	</g>
</g>
<g>
	<g>
		<path class="st0" d="M22,10c0.6,0,1,0.4,1,1v2c0,0.6-0.4,1-1,1h-7c-0.6,0-1-0.4-1-1v-2c0-0.6,0.4-1,1-1H22 M22,9h-7
			c-1.1,0-2,0.9-2,2v2c0,1.1,0.9,2,2,2h7c1.1,0,2-0.9,2-2v-2C24,9.9,23.1,9,22,9L22,9z"/>
	</g>
</g>
<g>
	<g>
		<path class="st0" d="M22,18c0.6,0,1,0.4,1,1v3c0,0.6-0.4,1-1,1H2c-0.6,0-1-0.4-1-1v-3c0-0.6,0.4-1,1-1H22 M22,17H2
			c-1.1,0-2,0.9-2,2v3c0,1.1,0.9,2,2,2h20c1.1,0,2-0.9,2-2v-3C24,17.9,23.1,17,22,17L22,17z"/>
	</g>
</g>
</svg>
