<?xml version="1.0" encoding="utf-8"?>
<!-- Generator: Adobe Illustrator 19.2.1, SVG Export Plug-In . SVG Version: 6.00 Build 0)  -->
<svg version="1.1" id="Layer_1" xmlns="http://www.w3.org/2000/svg" xmlns:xlink="http://www.w3.org/1999/xlink" x="0px" y="0px"
	 viewBox="0 0 31.9 24" style="enable-background:new 0 0 31.9 24;" xml:space="preserve">
<style type="text/css">
	.st0{fill:#FF3366;}
	.st1{fill:none;stroke:#FF3366;stroke-linejoin:round;stroke-miterlimit:10;}
</style>
<g>
	<g>
		<path class="st0" d="M26,1c0.6,0,1,0.4,1,1v2c0,0.6-0.4,1-1,1H11c-0.6,0-1-0.4-1-1V2c0-0.6,0.4-1,1-1H26 M26,0H11C9.9,0,9,0.9,9,2
			v2c0,1.1,0.9,2,2,2h15c1.1,0,2-0.9,2-2V2C28,0.9,27.1,0,26,0L26,0z"/>
	</g>
</g>
<g>
	<g>
		<path class="st0" d="M17,10c0.6,0,1,0.4,1,1v2c0,0.6-0.4,1-1,1H2c-0.6,0-1-0.4-1-1v-2c0-0.6,0.4-1,1-1H17 M17,9H2
			c-1.1,0-2,0.9-2,2v2c0,1.1,0.9,2,2,2h15c1.1,0,2-0.9,2-2v-2C19,9.9,18.1,9,17,9L17,9z"/>
	</g>
</g>
<g>
	<g>
		<path class="st0" d="M17,19c0.6,0,1,0.4,1,1v2c0,0.6-0.4,1-1,1H2c-0.6,0-1-0.4-1-1v-2c0-0.6,0.4-1,1-1H17 M17,18H2
			c-1.1,0-2,0.9-2,2v2c0,1.1,0.9,2,2,2h15c1.1,0,2-0.9,2-2v-2C19,18.9,18.1,18,17,18L17,18z"/>
	</g>
</g>
<polygon class="st1" points="31.4,17.6 26,17.4 22,21 22.6,8 "/>
</svg>
